<svg width="21" height="16" viewBox="0 0 21 16" fill="none" xmlns="http://www.w3.org/2000/svg">
<path d="M4.125 9.45455C3.71079 9.45455 3.375 9.78016 3.375 10.1818C3.375 10.5835 3.71079 10.9091 4.125 10.9091H9C9.41421 10.9091 9.75 10.5835 9.75 10.1818C9.75 9.78016 9.41421 9.45455 9 9.45455H4.125Z" fill="#0F265C"/>
<path fill-rule="evenodd" clip-rule="evenodd" d="M0.245235 1.19129C0 1.65801 0 2.26898 0 3.49091V12.5091C0 13.731 0 14.342 0.245235 14.8087C0.46095 15.2192 0.805157 15.553 1.22852 15.7622C1.70982 16 2.33988 16 3.6 16H17.4C18.6601 16 19.2902 16 19.7715 15.7622C20.1948 15.553 20.539 15.2192 20.7548 14.8087C21 14.342 21 13.731 21 12.5091V3.49091C21 2.26898 21 1.65801 20.7548 1.19129C20.539 0.780758 20.1948 0.446982 19.7715 0.237804C19.2902 0 18.6601 0 17.4 0H3.6C2.33988 0 1.70982 0 1.22852 0.237804C0.805157 0.446982 0.46095 0.780758 0.245235 1.19129ZM17.4 1.45455H3.6C2.94519 1.45455 2.54429 1.45568 2.24435 1.47944C2.10463 1.49051 2.02009 1.50442 1.96875 1.51614C1.94433 1.52172 1.92931 1.52639 1.92118 1.5292C1.91338 1.5319 1.90951 1.53381 1.90951 1.53381C1.76839 1.60354 1.65365 1.7148 1.58175 1.85164C1.58175 1.85164 1.57977 1.8554 1.57699 1.86296C1.57409 1.87084 1.56927 1.88541 1.56352 1.90909C1.55143 1.95887 1.53709 2.04085 1.52567 2.17634C1.50117 2.46719 1.5 2.85594 1.5 3.49091V5.09091H19.5V3.49091C19.5 2.85594 19.4988 2.46719 19.4743 2.17634C19.4629 2.04085 19.4486 1.95887 19.4365 1.90909C19.4307 1.88541 19.4259 1.87084 19.423 1.86296C19.4202 1.8554 19.4183 1.85164 19.4183 1.85164C19.3463 1.7148 19.2316 1.60354 19.0905 1.53381C19.0905 1.53381 19.0866 1.5319 19.0788 1.5292C19.0707 1.52639 19.0557 1.52172 19.0313 1.51614C18.9799 1.50442 18.8954 1.49051 18.7556 1.47944C18.4557 1.45568 18.0548 1.45455 17.4 1.45455ZM1.5 12.5091V6.54545H19.5V12.5091C19.5 13.1441 19.4988 13.5328 19.4743 13.8237C19.4629 13.9592 19.4486 14.0411 19.4365 14.0909C19.4307 14.1146 19.4259 14.1292 19.423 14.137C19.4202 14.1446 19.4183 14.1484 19.4183 14.1484C19.3463 14.2852 19.2316 14.3965 19.0905 14.4662C19.0905 14.4662 19.0866 14.4681 19.0788 14.4708C19.0707 14.4736 19.0557 14.4783 19.0313 14.4839C18.9799 14.4956 18.8954 14.5095 18.7556 14.5206C18.4557 14.5443 18.0548 14.5455 17.4 14.5455H3.6C2.94519 14.5455 2.54429 14.5443 2.24435 14.5206C2.10463 14.5095 2.02009 14.4956 1.96875 14.4839C1.94433 14.4783 1.92931 14.4736 1.92118 14.4708C1.91338 14.4681 1.90951 14.4662 1.90951 14.4662C1.76839 14.3965 1.65365 14.2852 1.58175 14.1484C1.58175 14.1484 1.57977 14.1446 1.57699 14.137C1.57409 14.1292 1.56927 14.1146 1.56352 14.0909C1.55143 14.0411 1.53709 13.9592 1.52567 13.8237C1.50117 13.5328 1.5 13.1441 1.5 12.5091Z" fill="#0F265C"/>
</svg>
