<svg width="21" height="22" viewBox="0 0 21 22" fill="none" xmlns="http://www.w3.org/2000/svg">
<path d="M5.6 8.9H7V7.5H5.6V8.9ZM14 8.9H15.4V7.5H14V8.9ZM14.14 12.68C13.7162 13.2451 13.1666 13.7037 12.5348 14.0196C11.903 14.3355 11.2064 14.5 10.5 14.5C9.79363 14.5 9.09697 14.3355 8.46518 14.0196C7.83339 13.7037 7.28382 13.2451 6.86 12.68L5.74 13.52C8.12 16.6938 12.88 16.6938 15.26 13.52L14.14 12.68ZM1.4 7.5V4H0V7.5H1.4ZM3.5 1.9H7V0.5H3.5V1.9ZM1.4 4C1.4 3.44305 1.62125 2.9089 2.01508 2.51508C2.4089 2.12125 2.94305 1.9 3.5 1.9V0.5C2.57174 0.5 1.6815 0.868749 1.02513 1.52513C0.368749 2.1815 0 3.07174 0 4H1.4ZM0 14.5V18H1.4V14.5H0ZM3.5 21.5H7V20.1H3.5V21.5ZM0 18C0 18.9283 0.368749 19.8185 1.02513 20.4749C1.6815 21.1313 2.57174 21.5 3.5 21.5V20.1C2.94305 20.1 2.4089 19.8787 2.01508 19.4849C1.62125 19.0911 1.4 18.557 1.4 18H0ZM14 1.9H17.5V0.5H14V1.9ZM19.6 4V7.5H21V4H19.6ZM17.5 1.9C18.057 1.9 18.5911 2.12125 18.9849 2.51508C19.3787 2.9089 19.6 3.44305 19.6 4H21C21 3.07174 20.6313 2.1815 19.9749 1.52513C19.3185 0.868749 18.4283 0.5 17.5 0.5V1.9ZM14 21.5H17.5V20.1H14V21.5ZM21 18V14.5H19.6V18H21ZM17.5 21.5C18.4283 21.5 19.3185 21.1313 19.9749 20.4749C20.6313 19.8185 21 18.9283 21 18H19.6C19.6 18.557 19.3787 19.0911 18.9849 19.4849C18.5911 19.8787 18.057 20.1 17.5 20.1V21.5Z" fill="black"/>
</svg>
