<svg width="21" height="21" viewBox="0 0 21 21" fill="none" xmlns="http://www.w3.org/2000/svg">
<path d="M10.4989 8.19719e-07C10.9131 -0.00060502 11.2494 0.334689 11.25 0.748902L11.2511 1.4989C11.2517 1.91312 10.9164 2.24939 10.5022 2.25C10.088 2.25061 9.75171 1.91531 9.7511 1.5011L9.75 0.751099C9.74939 0.336886 10.0847 0.000608448 10.4989 8.19719e-07Z" fill="#0F265C"/>
<path d="M0.75 9C0.335786 9 0 9.33579 0 9.75C0 10.1642 0.335786 10.5 0.75 10.5H1.5C1.91421 10.5 2.25 10.1642 2.25 9.75C2.25 9.33579 1.91421 9 1.5 9H0.75Z" fill="#0F265C"/>
<path d="M18.75 9.75C18.75 9.33579 19.0858 9 19.5 9H20.25C20.6642 9 21 9.33579 21 9.75C21 10.1642 20.6642 10.5 20.25 10.5H19.5C19.0858 10.5 18.75 10.1642 18.75 9.75Z" fill="#0F265C"/>
<path d="M8.25 20.25C8.25 19.8358 8.58579 19.5 9 19.5H12C12.4142 19.5 12.75 19.8358 12.75 20.25C12.75 20.6642 12.4142 21 12 21H9C8.58579 21 8.25 20.6642 8.25 20.25Z" fill="#0F265C"/>
<path d="M18.8534 3.60144C19.1463 3.30856 19.1463 2.83371 18.8534 2.54083C18.5604 2.24795 18.0856 2.24795 17.7926 2.54083L17.2623 3.07114C16.9694 3.36402 16.9694 3.83887 17.2623 4.13175C17.5552 4.42463 18.0301 4.42463 18.323 4.13175L18.8534 3.60144Z" fill="#0F265C"/>
<path d="M2.14884 2.54083C2.44175 2.24795 2.91665 2.24795 3.20955 2.54083L3.73991 3.07114C4.03281 3.36402 4.03281 3.83887 3.73991 4.13175C3.447 4.42463 2.97211 4.42463 2.6792 4.13175L2.14884 3.60144C1.85594 3.30856 1.85594 2.83371 2.14884 2.54083Z" fill="#0F265C"/>
<path fill-rule="evenodd" clip-rule="evenodd" d="M10.5 3.75C7.13534 3.75 4.5 6.5628 4.5 9.91667C4.5 12.2214 6.21388 13.9851 7.68571 14.9383C7.9952 15.1388 8.0625 15.3593 8.0625 15.4481C8.0625 16.4433 8.86922 17.25 9.86437 17.25H11.1356C12.1308 17.25 12.9375 16.4433 12.9375 15.4481C12.9375 15.3593 13.0048 15.1388 13.3143 14.9383C14.7861 13.9851 16.5 12.2214 16.5 9.91667C16.5 6.5628 13.8647 3.75 10.5 3.75ZM15 9.91667C15 11.4609 13.8105 12.8299 12.4989 13.6793C11.8867 14.0758 11.4375 14.7187 11.4375 15.4481C11.4375 15.6148 11.3023 15.75 11.1356 15.75H9.86437C9.69765 15.75 9.5625 15.6148 9.5625 15.4481C9.5625 14.7187 9.11335 14.0758 8.50109 13.6793C7.18948 12.8299 6 11.4609 6 9.91667C6 7.33934 8.01472 5.25 10.5 5.25C12.9853 5.25 15 7.33934 15 9.91667Z" fill="#0F265C"/>
</svg>
