<svg width="60" height="70" viewBox="0 0 60 70" fill="none" xmlns="http://www.w3.org/2000/svg">
<path fill-rule="evenodd" clip-rule="evenodd" d="M10 5.38462C8.79447 5.38462 7.63832 5.85737 6.78588 6.69888C5.93344 7.54039 5.45455 8.68172 5.45455 9.87179V60.1282C5.45455 61.3183 5.93344 62.4596 6.78588 63.3011C7.63832 64.1426 8.79447 64.6154 10 64.6154H22.7273C24.2335 64.6154 25.4545 65.8208 25.4545 67.3077C25.4545 68.7946 24.2335 70 22.7273 70H10C7.34783 70 4.8043 68.9599 2.92893 67.1086C1.05357 65.2573 0 62.7464 0 60.1282V9.87179C0 7.25363 1.05357 4.7427 2.92893 2.89138C4.8043 1.04006 7.34784 0 10 0H39.0909C41.7431 0 44.2866 1.04006 46.162 2.89138C48.0373 4.7427 49.0909 7.25363 49.0909 9.87179V43.9744C49.0909 45.4613 47.8699 46.6667 46.3636 46.6667C44.8574 46.6667 43.6364 45.4613 43.6364 43.9744V9.87179C43.6364 8.68172 43.1575 7.54039 42.305 6.69888C41.4526 5.85737 40.2964 5.38462 39.0909 5.38462H30.7539C30.8544 5.66531 30.9091 5.96738 30.9091 6.28205C30.9091 7.76897 29.6881 8.97436 28.1818 8.97436H20.9091C19.4029 8.97436 18.1818 7.76897 18.1818 6.28205C18.1818 5.96738 18.2365 5.66531 18.337 5.38462H10ZM24.5455 50.2564C26.0517 50.2564 27.2727 51.4618 27.2727 52.9487V52.9846C27.2727 54.4715 26.0517 55.6769 24.5455 55.6769C23.0392 55.6769 21.8182 54.4715 21.8182 52.9846V52.9487C21.8182 51.4618 23.0392 50.2564 24.5455 50.2564ZM55.3443 51.045C56.4093 49.9936 58.1361 49.9936 59.2012 51.045C60.2663 52.0964 60.2663 53.8011 59.2012 54.8525L44.6557 69.2114C43.5907 70.2629 41.8639 70.2629 40.7988 69.2114L33.5261 62.032C32.461 60.9805 32.461 59.2759 33.5261 58.2245C34.5911 57.173 36.318 57.173 37.383 58.2245L42.7273 63.5002L55.3443 51.045Z" fill="#0F265C"/>
</svg>
