<svg width="124" height="124" viewBox="0 0 124 124" fill="none" xmlns="http://www.w3.org/2000/svg">
<path d="M62 0C96.2417 0 124 27.7583 124 62C124 96.2417 96.2417 124 62 124C27.7583 124 0 96.2417 0 62C0 27.7583 27.7583 0 62 0ZM62.5 34C46.7599 34 34 46.7599 34 62.5C34 78.2401 46.7599 91 62.5 91C78.2401 91 91 78.2401 91 62.5C91 46.7599 78.2401 34 62.5 34Z" fill="#FF7B00" fill-opacity="0.15"/>
<path fill-rule="evenodd" clip-rule="evenodd" d="M21 62.4375C21 39.5512 39.5512 21 62.4375 21C85.3238 21 103.875 39.5512 103.875 62.4375C103.875 85.3238 85.3238 103.875 62.4375 103.875C39.5512 103.875 21 85.3238 21 62.4375Z" fill="#FF7B00"/>
<path fill-rule="evenodd" clip-rule="evenodd" d="M55.9332 44.1579C55.9332 42.9661 56.9126 42 58.1207 42H66.8707C68.0788 42 69.0582 42.9661 69.0582 44.1579C69.0582 45.3497 68.0788 46.3158 66.8707 46.3158H58.1207C56.9126 46.3158 55.9332 45.3497 55.9332 44.1579ZM50.1256 53.5299C53.4075 50.2925 57.8587 48.4737 62.5 48.4737C66.4059 48.4737 70.1772 49.7618 73.2303 52.0995L74.0782 51.2631C74.9325 50.4204 76.3175 50.4204 77.1718 51.2631C78.0261 52.1058 78.0261 53.4721 77.1718 54.3148L76.3239 55.1512C78.694 58.163 80 61.8835 80 65.7368C80 68.0039 79.5473 70.2487 78.6679 72.3432C77.7884 74.4376 76.4994 76.3407 74.8744 77.9437C73.2493 79.5468 71.3202 80.8184 69.197 81.6859C67.0738 82.5535 64.7981 83 62.5 83C60.2019 83 57.9262 82.5535 55.803 81.6859C53.6798 80.8184 51.7507 79.5468 50.1256 77.9437C48.5006 76.3407 47.2116 74.4376 46.3321 72.3432C45.4527 70.2487 45 68.0039 45 65.7368C45 61.1584 46.8437 56.7674 50.1256 53.5299ZM62.5 52.7895C59.019 52.7895 55.6806 54.1536 53.2192 56.5817C50.7578 59.0098 49.375 62.303 49.375 65.7368C49.375 67.4371 49.7145 69.1207 50.3741 70.6916C51.0337 72.2624 52.0005 73.6897 53.2192 74.892C54.438 76.0943 55.8849 77.048 57.4773 77.6987C59.0697 78.3493 60.7764 78.6842 62.5 78.6842C64.2236 78.6842 65.9303 78.3493 67.5227 77.6987C69.1151 77.048 70.562 76.0943 71.7808 74.892C72.9995 73.6897 73.9663 72.2624 74.6259 70.6916C75.2855 69.1207 75.625 67.4371 75.625 65.7368C75.625 62.303 74.2422 59.0098 71.7808 56.5817C69.3194 54.1536 65.981 52.7895 62.5 52.7895ZM69.5134 58.8162C70.3677 59.659 70.3677 61.0253 69.5134 61.868L64.0447 67.2627C63.1904 68.1054 61.8053 68.1054 60.9511 67.2627C60.0968 66.42 60.0968 65.0537 60.9511 64.211L66.4198 58.8162C67.2741 57.9735 68.6591 57.9735 69.5134 58.8162Z" fill="white"/>
</svg>
