<svg width="124" height="125" viewBox="0 0 124 125" fill="none" xmlns="http://www.w3.org/2000/svg">
<circle cx="62" cy="62.5" r="62" fill="#FF7B00" fill-opacity="0.15"/>
<path fill-rule="evenodd" clip-rule="evenodd" d="M21 62.9375C21 40.0512 39.5512 21.5 62.4375 21.5C85.3238 21.5 103.875 40.0512 103.875 62.9375C103.875 85.8238 85.3238 104.375 62.4375 104.375C39.5512 104.375 21 85.8238 21 62.9375Z" fill="#FF7B00"/>
<path fill-rule="evenodd" clip-rule="evenodd" d="M62.9658 50.4834C62.8658 50.3138 62.7243 50.1735 62.5551 50.076C62.3858 49.9786 62.1946 49.9274 62 49.9274C61.8054 49.9274 61.6142 49.9786 61.4449 50.076C61.2757 50.1735 61.1342 50.3138 61.0342 50.4834L47.5472 73.3416C47.4448 73.5151 47.3896 73.7131 47.3872 73.9154C47.3847 74.1177 47.4352 74.317 47.5334 74.4929C47.6316 74.6689 47.774 74.8153 47.9461 74.9171C48.1182 75.0189 48.3138 75.0726 48.5129 75.0725H75.4916C75.6909 75.073 75.8868 75.0196 76.0592 74.918C76.2316 74.8163 76.3743 74.67 76.4728 74.4939C76.5713 74.3179 76.6219 74.1184 76.6196 73.916C76.6173 73.7135 76.5621 73.5153 76.4596 73.3416L62.9658 50.4834ZM58.1392 48.7228C59.8839 45.7595 64.1139 45.7595 65.8608 48.7205L79.3524 71.5764C81.1511 74.6244 78.99 78.5 75.4893 78.5H48.5107C45.01 78.5023 42.8489 74.6266 44.6476 71.5787L58.1392 48.7228ZM64.2512 70.4995C64.2512 71.1059 64.014 71.6875 63.5919 72.1163C63.1697 72.5451 62.5971 72.786 62 72.786C61.4029 72.786 60.8303 72.5451 60.4081 72.1163C59.986 71.6875 59.7488 71.1059 59.7488 70.4995C59.7488 69.8931 59.986 69.3115 60.4081 68.8827C60.8303 68.4539 61.4029 68.213 62 68.213C62.5971 68.213 63.1697 68.4539 63.5919 68.8827C64.014 69.3115 64.2512 69.8931 64.2512 70.4995ZM63.6884 57.3521C63.6884 56.8973 63.5105 56.4611 63.1939 56.1395C62.8773 55.8179 62.4478 55.6372 62 55.6372C61.5522 55.6372 61.1227 55.8179 60.8061 56.1395C60.4895 56.4611 60.3116 56.8973 60.3116 57.3521V64.2116C60.3116 64.6664 60.4895 65.1026 60.8061 65.4242C61.1227 65.7458 61.5522 65.9265 62 65.9265C62.4478 65.9265 62.8773 65.7458 63.1939 65.4242C63.5105 65.1026 63.6884 64.6664 63.6884 64.2116V57.3521Z" fill="white"/>
</svg>
