<svg width="202" height="202" viewBox="0 0 202 202" fill="none" xmlns="http://www.w3.org/2000/svg">
<path d="M3 96.5207V58.3647L66.5446 45.0625L100.769 52.9919L135.139 60.9553L198.75 45.0625V184.22L135.139 197.614L98.1031 191.004L3 96.5207Z" fill="#EAF6FC"/>
<path d="M135.139 60.9553L129.934 142.367L135.139 197.614L198.75 184.22V45.0625L135.139 60.9553Z" fill="#B2DCFD"/>
<path d="M66.545 45.0625L135.14 60.9553V197.614L66.5312 185.369L66.545 45.0625Z" fill="#DBEFFA"/>
<path d="M135.139 60.9569L100.875 53.0156V191.503L135.139 197.615V60.9569Z" fill="#CBE8F8"/>
<path d="M76.3424 154.03L58.4584 144.9C52.0254 141.617 47.121 136.071 44.6485 129.284L42.2716 122.76C36.5528 107.062 21.4858 96.5156 4.77895 96.5156H3V198.749L66.5308 185.364L98.1031 190.999V189.57C98.1031 174.5 89.765 160.882 76.3424 154.03Z" fill="#97DE3D"/>
<path d="M76.3432 154.03L66.5351 149.023L66.5312 185.365L98.1036 191V189.571C98.104 174.501 89.7659 160.882 76.3432 154.03Z" fill="#59C36A"/>
<path d="M153.242 91.7978C157.821 96.3773 160.343 102.466 160.343 108.942C160.343 128.611 176.345 144.612 196.014 144.612H198.749V45.0625L143.665 58.825L140.328 78.8844L153.242 91.7978Z" fill="#00A66C"/>
<path d="M100.875 136.361C100.875 136.361 51.5078 92.179 51.5078 52.3672C51.5078 25.1461 73.6539 3 100.875 3C128.096 3 150.242 25.1461 150.242 52.3672C150.242 89.5574 100.875 136.361 100.875 136.361Z" fill="#FC445F"/>
<path d="M100.875 3V136.361C100.875 136.361 150.242 89.5574 150.242 52.3672C150.242 25.1461 128.096 3 100.875 3Z" fill="#E1105A"/>
<path d="M100.874 76.3106C87.7057 76.3106 76.9922 65.5975 76.9922 52.4288C76.9922 39.26 87.7057 28.5469 100.874 28.5469C114.042 28.5469 124.756 39.2604 124.756 52.4288C124.756 65.5971 114.042 76.3106 100.874 76.3106Z" fill="#E1105A"/>
<path d="M100.875 28.5469V76.3103C114.043 76.3103 124.757 65.5971 124.757 52.4284C124.757 39.2604 114.043 28.5469 100.875 28.5469Z" fill="#A1073D"/>
</svg>
