<svg width="71" height="71" viewBox="0 0 71 71" fill="none" xmlns="http://www.w3.org/2000/svg">
<path fill-rule="evenodd" clip-rule="evenodd" d="M11.1571 6.08571C9.81212 6.08571 8.52218 6.62002 7.5711 7.5711C6.62002 8.52218 6.08571 9.81212 6.08571 11.1571V19.2714C6.08571 20.952 4.72338 22.3143 3.04286 22.3143C1.36233 22.3143 0 20.952 0 19.2714V11.1571C0 8.19808 1.17548 5.36022 3.26785 3.26785C5.36022 1.17548 8.19808 0 11.1571 0H19.2714C20.952 0 22.3143 1.36233 22.3143 3.04286C22.3143 4.72338 20.952 6.08571 19.2714 6.08571H11.1571ZM48.6857 3.04286C48.6857 1.36233 50.048 0 51.7286 0H59.8429C62.8019 0 65.6398 1.17548 67.7321 3.26785C69.8245 5.36022 71 8.19808 71 11.1571V19.2714C71 20.952 69.6377 22.3143 67.9571 22.3143C66.2766 22.3143 64.9143 20.952 64.9143 19.2714V11.1571C64.9143 9.81212 64.38 8.52218 63.4289 7.5711C62.4778 6.62002 61.1879 6.08571 59.8429 6.08571H51.7286C50.048 6.08571 48.6857 4.72338 48.6857 3.04286ZM27.6107 15.4393C29.7031 13.3469 32.5409 12.1714 35.5 12.1714C38.4591 12.1714 41.2969 13.3469 43.3893 15.4393C45.4817 17.5316 46.6571 20.3695 46.6571 23.3286C46.6571 26.2876 45.4817 29.1255 43.3893 31.2179C41.2969 33.3102 38.4591 34.4857 35.5 34.4857C32.5409 34.4857 29.7031 33.3102 27.6107 31.2179C25.5183 29.1255 24.3429 26.2876 24.3429 23.3286C24.3429 20.3695 25.5183 17.5316 27.6107 15.4393ZM35.5 18.2571C34.155 18.2571 32.865 18.7915 31.914 19.7425C30.9629 20.6936 30.4286 21.9835 30.4286 23.3286C30.4286 24.6736 30.9629 25.9635 31.914 26.9146C32.865 27.8657 34.155 28.4 35.5 28.4C36.845 28.4 38.135 27.8657 39.086 26.9146C40.0371 25.9635 40.5714 24.6736 40.5714 23.3286C40.5714 21.9835 40.0371 20.6936 39.086 19.7425C38.135 18.7915 36.845 18.2571 35.5 18.2571ZM27.3857 46.6571C26.0407 46.6571 24.7508 47.1914 23.7997 48.1425C22.8486 49.0936 22.3143 50.3835 22.3143 51.7286C22.3143 53.4091 20.952 54.7714 19.2714 54.7714C17.5909 54.7714 16.2286 53.4091 16.2286 51.7286C16.2286 48.7695 17.4041 45.9316 19.4964 43.8393C21.5888 41.7469 24.4267 40.5714 27.3857 40.5714H43.6143C46.5733 40.5714 49.4112 41.7469 51.5036 43.8393C53.5959 45.9316 54.7714 48.7695 54.7714 51.7286C54.7714 53.4091 53.4091 54.7714 51.7286 54.7714C50.048 54.7714 48.6857 53.4091 48.6857 51.7286C48.6857 50.3835 48.1514 49.0936 47.2003 48.1425C46.2492 47.1914 44.9593 46.6571 43.6143 46.6571H27.3857ZM3.04286 48.6857C4.72338 48.6857 6.08571 50.048 6.08571 51.7286V59.8429C6.08571 61.1879 6.62002 62.4778 7.5711 63.4289C8.52218 64.38 9.81212 64.9143 11.1571 64.9143H19.2714C20.952 64.9143 22.3143 66.2766 22.3143 67.9571C22.3143 69.6377 20.952 71 19.2714 71H11.1571C8.19808 71 5.36022 69.8245 3.26785 67.7321C1.17548 65.6398 0 62.8019 0 59.8429V51.7286C0 50.048 1.36233 48.6857 3.04286 48.6857ZM67.9571 48.6857C69.6377 48.6857 71 50.048 71 51.7286V59.8429C71 62.8019 69.8245 65.6398 67.7321 67.7321C65.6398 69.8245 62.8019 71 59.8429 71H51.7286C50.048 71 48.6857 69.6377 48.6857 67.9571C48.6857 66.2766 50.048 64.9143 51.7286 64.9143H59.8429C61.1879 64.9143 62.4778 64.38 63.4289 63.4289C64.38 62.4778 64.9143 61.1879 64.9143 59.8429V51.7286C64.9143 50.048 66.2766 48.6857 67.9571 48.6857Z" fill="#0F265C"/>
</svg>
